<svg width="24" height="24" viewBox="0 0 24 24" fill="none" xmlns="http://www.w3.org/2000/svg">
<path d="M22.2277 0H1.77335C0.793875 0 0 0.769608 0 1.71949V22.28C0 23.2299 0.794142 24.0003 1.77335 24.0003H22.2277C23.2072 24.0003 24 23.2296 24 22.28V1.71949C24 0.769875 23.2072 0 22.2277 0ZM7.27608 20.0898H3.64991V9.25397H7.27608V20.0898ZM5.46326 7.77369H5.43899C4.22298 7.77369 3.4347 6.94194 3.4347 5.90086C3.4347 4.83872 4.24618 4.02964 5.48619 4.02964C6.72647 4.02964 7.48942 4.83845 7.51342 5.90086C7.51342 6.94221 6.72674 7.77369 5.46326 7.77369ZM20.3477 20.0898H16.7226V14.2924C16.7226 12.8353 16.1972 11.8415 14.8863 11.8415C13.8834 11.8415 13.2881 12.5121 13.0268 13.1593C12.9297 13.3908 12.906 13.714 12.906 14.0372V20.0896H9.28144C9.28144 20.0896 9.3289 10.27 9.28144 9.2537H12.9063V10.79C13.3876 10.0518 14.2474 8.99877 16.1727 8.99877C18.5586 8.99877 20.3477 10.5465 20.3477 13.8764V20.0898ZM12.8828 10.8244C12.8892 10.8143 12.8977 10.8017 12.9063 10.79V10.8244H12.8828Z" fill="#303030"/>
</svg>
