<svg width="24" height="24" viewBox="0 0 24 24" fill="none" xmlns="http://www.w3.org/2000/svg">
<path d="M5.53664 0C2.48418 0 0.00341797 2.69411 0.00341797 6V18C0.00341797 21.3059 2.48418 24 5.53664 24H18.4634C21.5158 24 23.9966 21.3059 23.9966 18V6C23.9966 2.69411 21.5158 0 18.4634 0H5.53664ZM5.53664 2H18.4634C20.525 2 22.1567 3.76725 22.1567 6V18C22.1567 20.2327 20.525 22 18.4634 22H5.53664C3.47505 22 1.84328 20.2327 1.84328 18V6C1.84328 3.76725 3.47505 2 5.53664 2V2Z" fill="#303030"/>
<path d="M0.923339 6C0.678454 6 0.443599 6.10536 0.27044 6.2929C0.0972802 6.48043 0 6.73479 0 7C0 7.26522 0.0972802 7.51957 0.27044 7.70711C0.443599 7.89465 0.678454 8 0.923339 8H23.0767C23.3215 8 23.5564 7.89465 23.7296 7.70711C23.9027 7.51957 24 7.26522 24 7C24 6.73479 23.9027 6.48043 23.7296 6.2929C23.5564 6.10536 23.3215 6 23.0767 6H0.923339ZM18.368 3.00369C18.1231 3.01741 17.8933 3.13592 17.7291 3.33314C17.5649 3.53036 17.4798 3.79015 17.4924 4.05535C17.5051 4.32055 17.6145 4.56945 17.7965 4.7473C17.9786 4.92515 18.2185 5.01737 18.4634 5.00369H19.3833C19.5046 5.00369 19.6246 4.97783 19.7367 4.92757C19.8487 4.87732 19.9505 4.80366 20.0362 4.7108C20.1219 4.61794 20.19 4.5077 20.2364 4.38638C20.2828 4.26505 20.3066 4.13502 20.3066 4.00369C20.3066 3.87237 20.2828 3.74234 20.2364 3.62101C20.19 3.49968 20.1219 3.38944 20.0362 3.29659C19.9505 3.20373 19.8487 3.13007 19.7367 3.07981C19.6246 3.02956 19.5046 3.00369 19.3833 3.00369H18.4634C18.4316 3.00191 18.3997 3.00191 18.368 3.00369H18.368ZM13.7547 3.00369C13.5098 3.01642 13.2796 3.13397 13.1148 3.33051C12.9499 3.52704 12.8639 3.78645 12.8756 4.05166C12.8874 4.31688 12.9959 4.56618 13.1774 4.74472C13.3589 4.92326 13.5984 5.01642 13.8433 5.00369H14.77C14.8913 5.00369 15.0113 4.97783 15.1234 4.92757C15.2354 4.87732 15.3372 4.80366 15.4229 4.7108C15.5087 4.61794 15.5767 4.5077 15.6231 4.38638C15.6695 4.26505 15.6934 4.13502 15.6934 4.00369C15.6934 3.87237 15.6695 3.74234 15.6231 3.62101C15.5767 3.49968 15.5087 3.38944 15.4229 3.29659C15.3372 3.20373 15.2354 3.13007 15.1234 3.07981C15.0113 3.02956 14.8913 3.00369 14.77 3.00369H13.8433C13.8138 3.00216 13.7842 3.00216 13.7547 3.00369Z" fill="#303030"/>
<path d="M9.21634 5.98524C9.09508 5.98762 8.97543 6.01586 8.86424 6.06833C8.75306 6.12081 8.65251 6.19651 8.56834 6.29109C8.48418 6.38567 8.41805 6.49728 8.37373 6.61955C8.3294 6.74182 8.30776 6.87236 8.31004 7.00369V22.9963C8.31004 23.1276 8.33392 23.2577 8.38032 23.379C8.42673 23.5003 8.49474 23.6106 8.58048 23.7034C8.66622 23.7963 8.76801 23.8699 8.88003 23.9202C8.99205 23.9704 9.11212 23.9963 9.23338 23.9963C9.35463 23.9963 9.4747 23.9704 9.58672 23.9202C9.69875 23.8699 9.80054 23.7963 9.88628 23.7034C9.97202 23.6106 10.04 23.5003 10.0864 23.379C10.1328 23.2577 10.1567 23.1276 10.1567 22.9963V7.00369C10.159 6.86925 10.1363 6.73568 10.0899 6.61098C10.0435 6.48627 9.97427 6.37299 9.88648 6.27791C9.79869 6.18283 9.69409 6.10791 9.57895 6.05762C9.4638 6.00733 9.34047 5.98271 9.21634 5.98524Z" fill="#303030"/>
<path d="M9.22998 16H23.0767C24.3078 16 24.3078 14 23.0767 14H9.22998V16Z" fill="#303030"/>
<path d="M16.1397 5.98524C16.0184 5.98762 15.8988 6.01586 15.7876 6.06834C15.6764 6.12082 15.5758 6.19651 15.4917 6.29109C15.4075 6.38567 15.3414 6.49729 15.297 6.61956C15.2527 6.74183 15.2311 6.87236 15.2334 7.00369V14.9963C15.2334 15.2615 15.3306 15.5159 15.5038 15.7034C15.677 15.891 15.9118 15.9963 16.1567 15.9963C16.4016 15.9963 16.6364 15.891 16.8096 15.7034C16.9828 15.5159 17.08 15.2615 17.08 14.9963V7.00369C17.0824 6.86925 17.0596 6.73569 17.0132 6.61098C16.9668 6.48628 16.8976 6.373 16.8098 6.27792C16.722 6.18284 16.6174 6.10791 16.5023 6.05762C16.3871 6.00734 16.2638 5.98272 16.1397 5.98524V5.98524ZM4.61667 10C4.37178 10 4.13693 10.1054 3.96377 10.2929C3.79061 10.4804 3.69333 10.7348 3.69333 11C3.69333 11.2652 3.79061 11.5196 3.96377 11.7071C4.13693 11.8946 4.37178 12 4.61667 12H5.5366C5.78149 12 6.01634 11.8946 6.1895 11.7071C6.36266 11.5196 6.45994 11.2652 6.45994 11C6.45994 10.7348 6.36266 10.4804 6.1895 10.2929C6.01634 10.1054 5.78149 10 5.5366 10H4.61667ZM4.52127 14C4.2764 14.0137 4.04659 14.1322 3.88239 14.3294C3.71819 14.5267 3.63305 14.7865 3.6457 15.0517C3.65835 15.3169 3.76776 15.5658 3.94984 15.7436C4.13193 15.9215 4.3718 16.0137 4.61667 16H5.5366C5.78149 16 6.01634 15.8946 6.1895 15.7071C6.36266 15.5196 6.45994 15.2652 6.45994 15C6.45994 14.7348 6.36266 14.4804 6.1895 14.2929C6.01634 14.1054 5.78149 14 5.5366 14H4.61667C4.58489 13.9982 4.55305 13.9982 4.52127 14H4.52127ZM4.52127 18C4.2764 18.0137 4.04659 18.1322 3.88239 18.3294C3.71819 18.5267 3.63305 18.7865 3.6457 19.0517C3.65835 19.3169 3.76776 19.5658 3.94984 19.7436C4.13193 19.9215 4.3718 20.0137 4.61667 20H5.5366C5.78149 20 6.01634 19.8946 6.1895 19.7071C6.36266 19.5196 6.45994 19.2652 6.45994 19C6.45994 18.7348 6.36266 18.4804 6.1895 18.2929C6.01634 18.1054 5.78149 18 5.5366 18H4.61667C4.58489 17.9982 4.55305 17.9982 4.52127 18H4.52127ZM4.52127 3.00369C4.2764 3.01741 4.04659 3.13592 3.88239 3.33314C3.71819 3.53036 3.63305 3.79015 3.6457 4.05535C3.65835 4.32055 3.76776 4.56945 3.94984 4.7473C4.13193 4.92515 4.3718 5.01737 4.61667 5.00369H5.5366C5.65786 5.00369 5.77792 4.97783 5.88995 4.92757C6.00197 4.87732 6.10376 4.80366 6.1895 4.7108C6.27524 4.61794 6.34325 4.5077 6.38966 4.38638C6.43606 4.26505 6.45994 4.13501 6.45994 4.00369C6.45994 3.87237 6.43606 3.74233 6.38966 3.62101C6.34325 3.49968 6.27524 3.38944 6.1895 3.29659C6.10376 3.20373 6.00197 3.13007 5.88995 3.07981C5.77792 3.02956 5.65786 3.00369 5.5366 3.00369H4.61667C4.58489 3.00191 4.55305 3.00191 4.52127 3.00369H4.52127Z" fill="#303030"/>
</svg>
