<svg width="24" height="24" viewBox="0 0 24 24" fill="none" xmlns="http://www.w3.org/2000/svg">
<path d="M9.33825 10.1562C7.13433 10.1562 4.89915 10.7363 3.12915 11.6967C1.35916 12.6571 0 14.0532 0 15.691V18.4652C0 21.5185 3.59215 24 8 24H16C20.4079 24 24 21.5185 24 18.4652V15.691C24 14.0532 22.6408 12.6571 20.8708 11.6967C19.1009 10.7363 16.8657 10.1562 14.6617 10.1562C14.3119 10.1564 13.9761 10.2519 13.7269 10.422L12.0049 11.6217L10.2731 10.422C10.0239 10.2519 9.68814 10.1564 9.33825 10.1562V10.1562ZM8.92497 12.0988L11.0603 13.578C11.31 13.7499 11.6479 13.8464 12 13.8464C12.3521 13.8464 12.69 13.7499 12.9397 13.578L15.075 12.0988C16.4695 12.1704 18.0395 12.5107 19.2276 13.1554C20.5335 13.8639 21.3333 14.771 21.3333 15.691V18.4652C21.3333 20.5274 18.977 22.1528 16 22.1528H8C5.023 22.1528 2.66667 20.5274 2.66667 18.4652V15.691C2.66667 14.771 3.46653 13.8639 4.77245 13.1554C5.96051 12.5107 7.53051 12.1704 8.92497 12.0988ZM11.9951 0C8.69798 -3.48992e-08 6.00246 1.86719 6.00246 4.15109C6.00246 6.435 8.69798 8.309 11.9951 8.309C15.2922 8.309 17.9975 6.435 17.9975 4.15109C17.9975 1.86719 15.2922 0 11.9951 0V0ZM11.9951 1.84039C13.8514 1.84039 15.3309 2.86524 15.3309 4.15109C15.3309 5.43694 13.8514 6.4618 11.9951 6.4618C10.1388 6.4618 8.66913 5.43694 8.66913 4.15109C8.66913 2.86524 10.1388 1.84039 11.9951 1.84039V1.84039Z" fill="#303030"/>
<path d="M19.198 11.0627C18.9593 11.0597 18.7238 11.1011 18.5161 11.1826C18.3084 11.2642 18.1361 11.3828 18.0172 11.5263L15.7245 14.1982L12.9397 12.2692C12.8172 12.1792 12.6697 12.1072 12.5062 12.0574C12.3426 12.0076 12.1663 11.9811 11.9876 11.9794C11.809 11.9778 11.6317 12.001 11.4663 12.0478C11.3009 12.0945 11.1507 12.1638 11.0247 12.2515C10.8987 12.3393 10.7995 12.4436 10.7329 12.5585C10.6663 12.6733 10.6336 12.7962 10.6369 12.92C10.6403 13.0437 10.6794 13.1657 10.7522 13.2787C10.8249 13.3918 10.9297 13.4935 11.0603 13.5779L15.0553 16.3453C15.1992 16.4443 15.3738 16.5193 15.5658 16.5645C15.7578 16.6097 15.9621 16.624 16.1633 16.6062C16.3644 16.5885 16.5571 16.5392 16.7266 16.4621C16.8961 16.385 17.038 16.2821 17.1414 16.1613L20.31 12.4737C20.4346 12.3349 20.5037 12.1756 20.5104 12.0122C20.5171 11.8488 20.461 11.6871 20.3479 11.5436C20.2349 11.4001 20.0688 11.28 19.8668 11.1955C19.6648 11.1111 19.434 11.0652 19.198 11.0627V11.0627Z" fill="#303030"/>
<path d="M4.76257 11.0696C4.53147 11.0774 4.30727 11.1267 4.11202 11.2127C3.91678 11.2987 3.7572 11.4184 3.64899 11.5601C3.54078 11.7017 3.48766 11.8605 3.49485 12.0207C3.50204 12.1809 3.56929 12.337 3.69 12.4737L6.85851 16.1613C6.96197 16.2821 7.10384 16.385 7.27335 16.4621C7.44285 16.5392 7.63552 16.5885 7.83667 16.6063C8.03783 16.624 8.24218 16.6097 8.43418 16.5645C8.62617 16.5193 8.80074 16.4444 8.94461 16.3454L12.9397 13.578C13.0703 13.4935 13.1751 13.3918 13.2478 13.2787C13.3205 13.1657 13.3597 13.0437 13.363 12.92C13.3663 12.7963 13.3337 12.6733 13.2671 12.5585C13.2005 12.4437 13.1012 12.3393 12.9752 12.2516C12.8492 12.1638 12.6991 12.0945 12.5337 12.0478C12.3682 12.001 12.191 11.9778 12.0123 11.9795C11.8337 11.9811 11.6574 12.0076 11.4938 12.0574C11.3302 12.1072 11.1828 12.1792 11.0602 12.2693L8.27548 14.1982L5.98274 11.5263C5.85942 11.3799 5.68035 11.2599 5.46514 11.1794C5.24992 11.0988 5.00686 11.0608 4.76257 11.0696V11.0696ZM16 17.5382C15.6463 17.5382 15.3072 17.6355 15.0572 17.8087C14.8071 17.9819 14.6666 18.2169 14.6666 18.4618C14.6666 18.7068 14.8071 18.9417 15.0572 19.1149C15.3072 19.2881 15.6463 19.3854 16 19.3854H17.3284C17.682 19.3854 18.0211 19.2881 18.2712 19.1149C18.5212 18.9417 18.6617 18.7068 18.6617 18.4618C18.6617 18.2169 18.5212 17.9819 18.2712 17.8087C18.0211 17.6355 17.682 17.5382 17.3284 17.5382H16Z" fill="#303030"/>
</svg>
