<svg width="24" height="24" viewBox="0 0 24 24" fill="none" xmlns="http://www.w3.org/2000/svg">
<path d="M4.76923 11.0031C2.15385 11.0031 0 13.1446 0 15.6553V19.3477C0 21.8584 2.15385 24 4.76923 24H13.4615C16.0769 24 18.2308 21.8584 18.2308 19.3477V15.6553C18.2308 13.1446 16.0769 11.0031 13.4615 11.0031H4.76923ZM4.76923 12.9231H13.4615C15.0769 12.9231 16.3077 14.1045 16.3077 15.6553V19.3477C16.3077 20.8984 15.0769 22.1538 13.4615 22.1538H4.76923C3.15385 22.1538 1.92308 20.8984 1.92308 19.3477V15.6553C1.92308 14.1045 3.15385 12.9231 4.76923 12.9231Z" fill="#303030"/>
<path d="M5.76926 14.6954C5.46157 14.7693 5.2308 14.8429 5.07696 14.9908L3.15388 16.837C2.76926 17.2063 2.76926 17.797 3.15388 18.1662L5.07696 20.0124C6.00003 20.8985 7.38465 19.5693 6.46157 18.6832L5.15388 17.5016L6.46157 16.3201C7.07696 15.7293 6.61542 14.6955 5.76926 14.6955V14.6954ZM12.4616 14.6954C11.6154 14.6954 11.1539 15.7292 11.7693 16.32L13.077 17.5015L11.7693 18.683C10.9231 19.5691 12.2308 20.8984 13.1539 20.0123L15.077 18.1661C15.4616 17.7968 15.4616 17.2062 15.077 16.8369L13.1539 14.9907C13 14.8431 12.7693 14.6953 12.4616 14.6953V14.6954Z" fill="#303030"/>
<path d="M8.61542 0C6.00004 0 3.84619 2.06766 3.84619 4.57842V11.963C3.84619 13.2184 5.76927 13.2184 5.76927 11.963V4.57842C5.76927 3.02768 7.00004 1.7723 8.61542 1.7723H19.2308C20.8462 1.7723 22.077 3.02768 22.077 4.57842V15.6552C22.077 17.206 20.8462 18.4614 19.2308 18.4614H17.3077C16 18.4614 16 20.3075 17.3077 20.3075H19.2308C21.8462 20.3075 24 18.166 24 15.6552V4.57842C24 2.06766 21.8462 0 19.2308 0H8.61542Z" fill="#303030"/>
<path d="M8.61538 3.61836C7.38461 3.61836 7.38461 5.46455 8.61538 5.46455H9.61538C10.8462 5.46455 10.8462 3.61836 9.61538 3.61836H8.61538ZM13.4615 3.61836C12.1538 3.61836 12.1538 5.46455 13.4615 5.46455H19.2308C20.4615 5.46455 20.4615 3.61836 19.2308 3.61836H13.4615ZM18.2308 7.31063C17 7.31063 17 9.15682 18.2308 9.15682H19.2308C20.4615 9.15682 20.4615 7.31063 19.2308 7.31063H18.2308ZM10.5385 7.31063C9.30769 7.31063 9.30769 9.15682 10.5385 9.15682H14.3846C15.6923 9.15682 15.6923 7.31063 14.3846 7.31063H10.5385ZM9.53846 14.6953C9.07692 14.7692 8.76923 15.0645 8.6923 15.4337L7.6923 19.126C7.23077 20.3814 9.30769 20.8982 9.53846 19.569L10.5385 15.8768C10.6923 15.286 10.2308 14.6953 9.53846 14.6953Z" fill="#303030"/>
</svg>
